# Made using Asset Forge (www.assetforge.io) version 1.3 

mtllib SolarPannorm.mtl 

v -0.4087602 0.304578 0.1860446
v 0.4087601 0.304578 0.1860447
v -0.4087602 0.3225481 0.1756696
v 0.4087601 0.3225481 0.1756697
v -0.45 0.06594005 -0.2687885
v -0.45 0.34304 0.2111628
v 0.45 0.34304 0.2111629
v 0.4087602 0.08643203 -0.2332953
v -0.4087601 0.08643203 -0.2332954
v 0.45 0.06594005 -0.2687885
v -0.45 0.03 -0.2480385
v 0.45 0.03 -0.2480384
v 0.45 0.3071 0.2319129
v -0.45 0.3071 0.2319128
v 0.4087602 0.06846201 -0.2229203
v -0.4087601 0.06846201 -0.2229203
v -0.3 0.207704 0.05975382
v -0.227841 0.207704 0.05975382
v 0.3 0.207704 0.05975387
v 0.227841 0.207704 0.05975386
v -0.227841 0.249365 0.1319128
v 0.3 0.249365 0.1319128
v -0.3 0.249365 0.1319128
v 0.227841 0.249365 0.1319128
v 0.1989205 0.04 0.03083334
v 0.227841 0.04 0.1319128
v 0.1989205 0.04 0.1608333
v 0.3289205 0.04 0.1608334
v 0.3 0.04 0.1319128
v 0.3 0.04 0.05975387
v 0.3289205 0.04 0.03083335
v 0.227841 0.04 0.05975386
v 0.1989205 -2.255973E-17 0.03083334
v 0.1989205 -2.255973E-17 0.1608333
v 0.3289205 -2.255973E-17 0.03083335
v 0.3289205 -2.255973E-17 0.1608334
v -0.3 0.04 0.1319128
v -0.3 0.04 0.05975382
v -0.227841 0.04 0.05975382
v -0.227841 0.04 0.1319128
v -0.3289205 4.511946E-17 0.0308333
v -0.3289205 4.511946E-17 0.1608333
v -0.1989205 4.511946E-17 0.03083331
v -0.1989205 4.511946E-17 0.1608333
v -0.1989205 0.04 0.1608333
v -0.1989205 0.04 0.03083331
v -0.3289205 0.04 0.0308333
v -0.3289205 0.04 0.1608333
vn 7.571035E-08 -0.4999999 -0.8660255
vn 4.371139E-08 0.8660254 -0.5
vn 4.371138E-08 0.8660254 -0.5
vn 7.571033E-08 -0.5000004 -0.8660251
vn -7.571035E-08 0.4999999 0.8660255
vn -1 0 -8.742278E-08
vn 1 0 8.742278E-08
vn -7.571031E-08 0.5000007 0.866025
vn -4.371138E-08 -0.8660254 0.5
vn -4.371139E-08 -0.8660254 0.5
vn -4.37114E-08 -0.8660253 0.5000001
vn 0 1 0
vn 0 -1 0
vn 8.742278E-08 0 -1
vn -8.742278E-08 0 1
vn 4.371139E-08 0.8660254 -0.5000001
vt 0.4087602 0.304578
vt -0.4087601 0.304578
vt 0.4087602 0.3225481
vt -0.4087601 0.3225481
vt 0.45 -0.2687885
vt 0.4087602 0.1756696
vt 0.45 0.2111628
vt -0.45 0.2111629
vt -0.4087601 0.1756697
vt -0.4087602 -0.2332953
vt 0.4087601 -0.2332954
vt -0.45 -0.2687885
vt 0.45 0.03
vt -0.45 0.03
vt 0.45 0.06594005
vt -0.45 0.06594005
vt 0.45 0.3071
vt -0.45 0.3071
vt 0.45 0.34304
vt -0.45 0.34304
vt 0.2319128 0.3071
vt -0.2480385 0.03
vt 0.2111628 0.34304
vt -0.2687885 0.06594005
vt 0.1860447 0.304578
vt -0.2229203 0.06846201
vt 0.1756697 0.3225481
vt -0.2332953 0.08643203
vt -0.1860446 0.304578
vt -0.1756696 0.3225481
vt 0.2229203 0.06846201
vt 0.2332954 0.08643203
vt -0.2319129 0.3071
vt -0.2111629 0.34304
vt 0.2480384 0.03
vt 0.2687885 0.06594005
vt 0.4087602 0.06846201
vt -0.4087601 0.06846201
vt 0.4087602 0.08643203
vt -0.4087601 0.08643203
vt 0.45 -0.2319128
vt 0.3 -0.05975382
vt 0.45 0.2480385
vt -0.45 0.2480384
vt 0.227841 -0.05975382
vt -0.3 -0.05975387
vt -0.227841 -0.05975386
vt 0.227841 -0.1319128
vt -0.3 -0.1319128
vt -0.45 -0.2319129
vt 0.3 -0.1319128
vt -0.227841 -0.1319128
vt -0.1989205 0.03083334
vt -0.227841 0.1319128
vt -0.1989205 0.1608333
vt -0.3289205 0.1608334
vt -0.3 0.1319128
vt -0.3 0.05975387
vt -0.3289205 0.03083335
vt -0.227841 0.05975386
vt -0.1989205 -0.03083334
vt -0.1989205 -0.1608333
vt -0.3289205 -0.03083335
vt -0.3289205 -0.1608334
vt -0.1608334 -2.255973E-17
vt -0.1608334 0.04
vt -0.03083335 -2.255973E-17
vt -0.03083335 0.04
vt 0.1608333 0.04
vt 0.1608333 -2.255973E-17
vt 0.03083334 0.04
vt 0.03083334 -2.255973E-17
vt -0.1989205 -2.255973E-17
vt -0.3289205 -2.255973E-17
vt -0.1989205 0.04
vt -0.3289205 0.04
vt 0.3289205 -2.255973E-17
vt 0.1989205 -2.255973E-17
vt 0.3289205 0.04
vt 0.1989205 0.04
vt -0.1319128 0.04
vt -0.1319128 0.249365
vt -0.05975387 0.04
vt -0.05975387 0.207704
vt 0.1319128 0.249365
vt 0.1319128 0.04
vt 0.05975382 0.207704
vt 0.05975382 0.04
vt 0.1319128 0.04
vt 0.05975386 0.04
vt 0.1319128 0.249365
vt 0.05975386 0.207704
vt 0.3 0.04
vt 0.227841 0.04
vt 0.3 0.249365
vt 0.227841 0.249365
vt -0.227841 0.04
vt -0.3 0.04
vt -0.227841 0.207704
vt -0.3 0.207704
vt 0.227841 0.04
vt 0.3 0.207704
vt 0.227841 0.207704
vt -0.227841 0.04
vt -0.227841 0.249365
vt -0.3 0.249365
vt 0.3289205 -0.0308333
vt 0.3289205 -0.1608333
vt 0.1989205 -0.03083331
vt 0.1989205 -0.1608333
vt -0.1319128 0.04
vt -0.1319128 0.249365
vt -0.05975382 0.04
vt -0.05975382 0.207704
vt -0.1608333 4.511946E-17
vt -0.1608333 0.04
vt -0.03083331 4.511946E-17
vt -0.03083331 0.04
vt 0.3289205 4.511946E-17
vt 0.1989205 4.511946E-17
vt 0.1989205 0.04
vt -0.1989205 4.511946E-17
vt -0.3289205 4.511946E-17
vt -0.1989205 0.04
vt 0.1608333 0.04
vt 0.1608333 4.511946E-17
vt 0.0308333 0.04
vt 0.0308333 4.511946E-17
vt 0.3289205 0.0308333
vt 0.3 0.1319128
vt 0.3289205 0.1608333
vt 0.1989205 0.1608333
vt 0.227841 0.1319128
vt 0.227841 0.05975382
vt 0.1989205 0.03083331
vt 0.3 0.05975382
vt 0.4087602 0.1860446
vt 0.4087601 -0.2229203
vt -0.4087601 0.1860447
vt -0.4087602 -0.2229203

usemtl _defaultMat (Instance)
usemap _defaultMat (Instance)
f 3/3/1 2/2/1 1/1/1
f 2/2/1 3/3/1 4/4/1
f 6/7/3 3/6/3 5/5/2
f 3/6/3 6/7/3 7/8/2
f 3/6/3 7/8/2 4/9/2
f 4/9/2 7/8/2 8/10/2
f 9/11/2 5/5/2 3/6/3
f 5/5/2 9/11/2 10/12/2
f 10/12/2 9/11/2 8/10/2
f 10/12/2 8/10/2 7/8/2
f 5/15/4 12/14/4 11/13/4
f 12/14/4 5/15/4 10/16/4
f 7/19/5 14/18/5 13/17/5
f 14/18/5 7/19/5 6/20/5
f 6/23/6 11/22/6 14/21/6
f 11/22/6 6/23/6 5/24/6
f 4/27/6 15/26/6 2/25/6
f 15/26/6 4/27/6 8/28/6
f 16/31/7 3/30/7 1/29/7
f 3/30/7 16/31/7 9/32/7
f 12/35/7 7/34/7 13/33/7
f 7/34/7 12/35/7 10/36/7
f 8/39/8 16/38/8 15/37/8
f 16/38/8 8/39/8 9/40/8
f 11/43/10 17/42/9 14/41/9
f 17/42/9 11/43/10 12/44/9
f 17/42/9 12/44/9 18/45/9
f 20/47/9 12/44/9 19/46/9
f 18/45/9 12/44/9 21/48/9
f 19/46/9 12/44/9 22/49/9
f 21/48/9 12/44/9 20/47/9
f 14/41/9 23/51/10 13/50/11
f 23/51/10 14/41/9 17/42/9
f 13/50/11 23/51/10 21/48/9
f 13/50/11 21/48/9 24/52/10
f 24/52/10 21/48/9 20/47/9
f 13/50/11 24/52/10 22/49/9
f 13/50/11 22/49/9 12/44/9
f 27/55/12 26/54/12 25/53/12
f 26/54/12 27/55/12 28/56/12
f 26/54/12 28/56/12 29/57/12
f 29/57/12 28/56/12 30/58/12
f 25/53/12 32/60/12 31/59/12
f 32/60/12 25/53/12 26/54/12
f 31/59/12 32/60/12 30/58/12
f 31/59/12 30/58/12 28/56/12
f 35/63/13 34/62/13 33/61/13
f 34/62/13 35/63/13 36/64/13
f 35/67/7 28/66/7 36/65/7
f 28/66/7 35/67/7 31/68/7
f 25/71/6 34/70/6 27/69/6
f 34/70/6 25/71/6 33/72/6
f 25/75/14 35/74/14 33/73/14
f 35/74/14 25/75/14 31/76/14
f 28/79/15 34/78/15 36/77/15
f 34/78/15 28/79/15 27/80/15
f 30/83/7 22/82/7 29/81/7
f 22/82/7 30/83/7 19/84/7
f 17/87/6 37/86/6 23/85/6
f 37/86/6 17/87/6 38/88/6
f 24/91/6 32/90/6 26/89/6
f 32/90/6 24/91/6 20/92/6
f 22/95/15 26/94/15 29/93/15
f 26/94/15 22/95/15 24/96/15
f 20/99/14 30/98/14 32/97/14
f 30/98/14 20/99/14 19/100/14
f 17/102/14 39/101/14 38/93/14
f 39/101/14 17/102/14 18/103/14
f 21/105/15 37/98/15 40/104/15
f 37/98/15 21/105/15 23/106/15
f 43/109/13 42/108/13 41/107/13
f 42/108/13 43/109/13 44/110/13
f 39/113/7 21/112/7 40/111/7
f 21/112/7 39/113/7 18/114/7
f 43/117/7 45/116/7 44/115/7
f 45/116/7 43/117/7 46/118/7
f 47/79/14 43/120/14 41/119/14
f 43/120/14 47/79/14 46/121/14
f 45/124/15 42/123/15 44/122/15
f 42/123/15 45/124/15 48/76/15
f 47/127/6 42/126/6 48/125/6
f 42/126/6 47/127/6 41/128/6
f 48/131/12 37/130/12 47/129/12
f 37/130/12 48/131/12 45/132/12
f 37/130/12 45/132/12 40/133/12
f 40/133/12 45/132/12 39/134/12
f 47/129/12 38/136/12 46/135/12
f 38/136/12 47/129/12 37/130/12
f 46/135/12 38/136/12 39/134/12
f 46/135/12 39/134/12 45/132/12

usemtl satellite (Instance)
usemap satellite (Instance)
f 2/139/16 16/138/16 1/137/16
f 16/138/16 2/139/16 15/140/16
